<?xml version="1.0" encoding="UTF-8"?>
<svg id="AcadéNice_-_Logo_Rectangle__x28_Vert_x29_" xmlns="http://www.w3.org/2000/svg" xmlns:svg="http://www.w3.org/2000/svg" xmlns:sodipodi="http://sodipodi.sourceforge.net/DTD/sodipodi-0.dtd" xmlns:rdf="http://www.w3.org/1999/02/22-rdf-syntax-ns#" xmlns:inkscape="http://www.inkscape.org/namespaces/inkscape" xmlns:dc="http://purl.org/dc/elements/1.1/" xmlns:cc="http://creativecommons.org/ns#" version="1.1" viewBox="0 0 299.9 102.1">
  <!-- Generator: Adobe Illustrator 30.2.1, SVG Export Plug-In . SVG Version: 2.1.1 Build 1)  -->
  <defs>
    <style>
      .st0 {
        fill: #fff;
      }
    </style>
  </defs>
  <g>
    <polygon class="st0" points="40.7 23.4 41.4 21.8 40.7 23.4 40.7 23.4"/>
    <path class="st0" d="M17.6,37.8c.1-.2.2-.4.4-.6-.1.2-.2.4-.4.6Z"/>
    <path class="st0" d="M18.4,36.6c.1-.2.2-.4.4-.5-.1.2-.3.4-.4.5Z"/>
    <path class="st0" d="M16.1,40.4c.1-.2.2-.4.3-.6-.1.2-.2.4-.3.6Z"/>
    <path class="st0" d="M16.8,39.1c.1-.2.2-.4.3-.6-.1.2-.2.4-.3.6Z"/>
    <path class="st0" d="M20.1,34.2c.1-.2.3-.3.4-.5-.1.2-.3.3-.4.5Z"/>
    <path class="st0" d="M21.1,33.1c.1-.2.3-.3.4-.4-.1.1-.3.3-.4.4Z"/>
    <path class="st0" d="M19.2,35.4c.1-.2.3-.3.4-.5-.1.2-.3.3-.4.5Z"/>
    <path class="st0" d="M15.5,41.7c0-.2.2-.4.3-.7-.1.2-.2.4-.3.7Z"/>
    <path class="st0" d="M22,32c.1-.1.3-.3.4-.4-.1.1-.3.3-.4.4Z"/>
    <path class="st0" d="M14.9,43.1c0-.2.2-.5.3-.7,0,.2-.2.5-.3.7Z"/>
    <path class="st0" d="M12.9,50.4c0-.3,0-.6.1-.8,0,.3,0,.6-.1.8Z"/>
    <path class="st0" d="M12.5,55.7c0-.5,0-1,0-1.6,0,.5,0,1,0,1.6Z"/>
    <path class="st0" d="M13.2,48.9c0-.3.1-.5.2-.8,0,.3-.1.5-.2.8Z"/>
    <path class="st0" d="M12.7,52c0-.3,0-.6.1-.9,0,.3,0,.6-.1.9Z"/>
    <path class="st0" d="M14.4,44.5c0-.2.2-.5.3-.7,0,.2-.2.5-.3.7Z"/>
    <path class="st0" d="M13.9,45.9c0-.2.1-.5.2-.7,0,.2-.2.5-.2.7Z"/>
    <path class="st0" d="M13.5,47.4c0-.3.1-.5.2-.8,0,.3-.1.5-.2.8Z"/>
    <path class="st0" d="M12.6,53.6c0-.3,0-.7,0-1,0,.3,0,.7,0,1Z"/>
    <path class="st0" d="M26.4,28.1c.1,0,.2-.2.4-.3-.1,0-.2.2-.4.3Z"/>
    <path class="st0" d="M30.1,25.7c0,0,.1,0,.2,0,0,0-.1,0-.2,0Z"/>
    <path class="st0" d="M27.6,27.3c.1,0,.2-.1.3-.2-.1,0-.2.1-.3.2Z"/>
    <path class="st0" d="M28.9,26.5c0,0,.2-.1.3-.2,0,0-.2.1-.3.2Z"/>
    <polygon class="st0" points="18.4 74.9 40.7 23.4 40.7 23.4 18.4 74.9"/>
    <path class="st0" d="M25.3,29c.1-.1.3-.2.4-.3-.1.1-.3.2-.4.3Z"/>
    <path class="st0" d="M23.1,31c.1-.1.3-.3.4-.4-.1.1-.3.3-.4.4Z"/>
    <polygon class="st0" points="39.7 22.2 39.7 22.2 39.7 22.2 39.7 22.2"/>
    <path class="st0" d="M24.2,30c.1-.1.3-.2.4-.3-.1.1-.3.2-.4.3Z"/>
    <path class="st0" d="M67.9,28.6s0,0,0,0c0,0,0,0,0,0Z"/>
    <path class="st0" d="M66.9,27.9s0,0,0,0c0,0,0,0,0,0Z"/>
    <path class="st0" d="M63.9,26s0,0,0,0c0,0,0,0,0,0Z"/>
    <path class="st0" d="M66,27.2s0,0,0,0c0,0,0,0,0,0Z"/>
    <path class="st0" d="M65,26.6s0,0,0,0c0,0,0,0,0,0Z"/>
    <path class="st0" d="M78.6,42.7c0-.2-.1-.3-.2-.5,0,.2.1.3.2.5Z"/>
    <path class="st0" d="M78.1,41.6c0-.2-.1-.3-.2-.5,0,.2.1.3.2.5Z"/>
    <path class="st0" d="M77.6,40.5c0-.1-.1-.3-.2-.4,0,.1.1.3.2.4Z"/>
    <path class="st0" d="M75.8,37.3c0,0,0-.1-.1-.2,0,0,0,.1.1.2Z"/>
    <path class="st0" d="M69.7,30.1s0,0,0,0c0,0,0,0,0,0Z"/>
    <path class="st0" d="M77,39.4c0-.1-.1-.2-.2-.4,0,.1.1.2.2.4Z"/>
    <path class="st0" d="M68.8,29.4s0,0,0,0c0,0,0,0,0,0Z"/>
    <path class="st0" d="M76.4,38.3c0,0-.1-.2-.2-.3,0,0,.1.2.2.3Z"/>
    <path class="st0" d="M62.9,25.4s0,0,0,0c0,0,0,0,0,0Z"/>
    <path class="st0" d="M62.8,25.4s0,0,0,0c.3.2.7.4,1,.5,0,0,0,0,0,0,.3.2.6.4,1,.6,0,0,0,0,0,0,.3.2.6.4.9.6,0,0,0,0,0,0,.3.2.6.4.9.6,0,0,0,0,0,0,.3.2.6.4.9.7,0,0,0,0,0,0,.3.2.6.5.9.7,0,0,0,0,0,0,.3.2.6.5.9.7,0,0,0,0,0,0,2.3,2.1,4.3,4.4,6,7,0,0,0,.1.1.2.2.3.3.5.5.8,0,0,.1.2.2.3.1.2.3.5.4.7,0,.1.1.2.2.4.1.2.2.5.4.7,0,.1.1.3.2.4.1.2.2.4.3.7,0,.2.1.3.2.5,0,.2.2.4.3.6,0,.2.1.3.2.5,0,0,0,0,0,0l9.5,2.6c-3.8-15.2-15.7-27.2-30.9-31l3.9,9,.6,1.4h0c.3.2.7.3,1,.5Z"/>
    <path class="st0" d="M76.8,39c-.1-.2-.3-.5-.4-.7.1.2.3.5.4.7Z"/>
    <path class="st0" d="M63.9,25.9c-.3-.2-.7-.4-1-.5.3.2.7.4,1,.5Z"/>
    <path class="st0" d="M62.8,25.4c-.3-.2-.7-.4-1-.5.3.2.7.3,1,.5Z"/>
    <polygon class="st0" points="60.7 25.8 59.9 24 70 47.4 60.7 25.8"/>
    <path class="st0" d="M77.9,41.2c-.1-.2-.2-.4-.3-.7.1.2.2.4.3.7Z"/>
    <path class="st0" d="M69.6,30.1c-.3-.3-.6-.5-.9-.7.3.2.6.5.9.7Z"/>
    <path class="st0" d="M77.4,40.1c-.1-.2-.2-.5-.4-.7.1.2.2.5.4.7Z"/>
    <path class="st0" d="M76.2,38.1c-.2-.3-.3-.5-.5-.8.2.3.3.5.5.8Z"/>
    <path class="st0" d="M68.7,29.3c-.3-.2-.6-.5-.9-.7.3.2.6.5.9.7Z"/>
    <path class="st0" d="M78.4,42.3c0-.2-.2-.4-.3-.6,0,.2.2.4.3.6Z"/>
    <path class="st0" d="M65.9,27.2c-.3-.2-.6-.4-.9-.6.3.2.6.4.9.6Z"/>
    <path class="st0" d="M67.8,28.6c-.3-.2-.6-.4-.9-.7.3.2.6.4.9.7Z"/>
    <path class="st0" d="M64.9,26.5c-.3-.2-.6-.4-1-.6.3.2.6.4,1,.6Z"/>
    <path class="st0" d="M78.6,42.7s0,0,0,0h0s0,0,0,0Z"/>
    <path class="st0" d="M66.9,27.9c-.3-.2-.6-.4-.9-.6.3.2.6.4.9.6Z"/>
    <path class="st0" d="M19.6,34.8c.2-.2.3-.4.5-.6-.2.2-.3.4-.5.6Z"/>
    <path class="st0" d="M30.3,25.7c2.9-1.6,6.1-2.8,9.4-3.5-3.3.7-6.5,1.9-9.4,3.5Z"/>
    <path class="st0" d="M13.7,46.6c0-.2.1-.5.2-.7,0,.2-.1.5-.2.7Z"/>
    <path class="st0" d="M14.2,45.2c0-.2.2-.5.2-.7,0,.2-.2.5-.2.7Z"/>
    <path class="st0" d="M14.7,43.8c0-.2.2-.5.3-.7,0,.2-.2.5-.3.7Z"/>
    <path class="st0" d="M13.1,49.6c0-.2,0-.5.1-.7,0,.2,0,.5-.1.7Z"/>
    <path class="st0" d="M13.4,48.1c0-.2.1-.5.2-.7,0,.2-.1.5-.2.7Z"/>
    <path class="st0" d="M27.9,27.1c.3-.2.6-.4.9-.6-.3.2-.6.4-.9.6Z"/>
    <path class="st0" d="M12.8,51.1c0-.2,0-.4.1-.7,0,.2,0,.4-.1.7Z"/>
    <path class="st0" d="M29.1,26.3c.3-.2.7-.4,1-.6-.3.2-.7.4-1,.6Z"/>
    <path class="st0" d="M12.7,52.6c0-.2,0-.4,0-.6,0,.2,0,.4,0,.6Z"/>
    <path class="st0" d="M12.6,54.1c0-.2,0-.3,0-.5,0,.2,0,.3,0,.5Z"/>
    <path class="st0" d="M15.2,42.4c0-.2.2-.5.3-.7-.1.2-.2.5-.3.7Z"/>
    <path class="st0" d="M21.5,32.6c.2-.2.4-.4.6-.6-.2.2-.4.4-.6.6Z"/>
    <path class="st0" d="M23.5,30.6c.2-.2.4-.4.7-.6-.2.2-.4.4-.7.6Z"/>
    <path class="st0" d="M26.8,27.9c.3-.2.6-.4.8-.6-.3.2-.6.4-.8.6Z"/>
    <path class="st0" d="M24.6,29.6c.2-.2.5-.4.7-.6-.2.2-.5.4-.7.6Z"/>
    <path class="st0" d="M25.7,28.7c.3-.2.5-.4.8-.6-.3.2-.5.4-.8.6Z"/>
    <path class="st0" d="M18.7,36c.2-.2.3-.4.5-.7-.2.2-.3.4-.5.7Z"/>
    <path class="st0" d="M20.5,33.7c.2-.2.4-.4.5-.6-.2.2-.4.4-.5.6Z"/>
    <path class="st0" d="M17.2,38.5c.1-.2.3-.4.4-.7-.1.2-.3.4-.4.7Z"/>
    <path class="st0" d="M16.5,39.7c.1-.2.2-.5.4-.7-.1.2-.2.4-.4.7Z"/>
    <path class="st0" d="M17.9,37.2c.1-.2.3-.4.4-.7-.1.2-.3.4-.4.7Z"/>
    <path class="st0" d="M15.8,41.1c.1-.2.2-.5.3-.7-.1.2-.2.5-.3.7Z"/>
    <path class="st0" d="M22.4,31.6c.2-.2.4-.4.6-.6-.2.2-.4.4-.6.6Z"/>
    <line class="st0" x1="79.3" y1="44.5" x2="79.3" y2="44.5"/>
    <path class="st0" d="M79.3,44.5l-6.6-1.8,1.9,2.7-1.3.6-3.2,1.4-10.2-23.4-4.3-10-5.4-12.4-31.7,73.3c-3.7-5.5-5.9-12.1-5.9-19.2s0-1,0-1.6c0-.2,0-.3,0-.5,0-.3,0-.7,0-1,0-.2,0-.4,0-.6,0-.3,0-.6.1-.9,0-.2,0-.4.1-.7,0-.3,0-.6.1-.8,0-.2,0-.5.1-.7,0-.3.1-.5.2-.8,0-.2.1-.5.2-.7,0-.3.1-.5.2-.8,0-.2.1-.5.2-.7,0-.2.1-.5.2-.7,0-.2.2-.5.2-.7,0-.2.2-.5.3-.7,0-.2.2-.5.3-.7,0-.2.2-.5.3-.7,0-.2.2-.5.3-.7,0-.2.2-.4.3-.7.1-.2.2-.5.3-.7.1-.2.2-.4.3-.6.1-.2.2-.5.4-.7.1-.2.2-.4.3-.6.1-.2.3-.4.4-.7.1-.2.2-.4.4-.6.1-.2.3-.4.4-.7.1-.2.2-.4.4-.5.2-.2.3-.4.5-.7.1-.2.3-.3.4-.5.2-.2.3-.4.5-.6.1-.2.3-.3.4-.5.2-.2.4-.4.5-.6.1-.2.3-.3.4-.4.2-.2.4-.4.6-.6.1-.1.3-.3.4-.4.2-.2.4-.4.6-.6.1-.1.3-.3.4-.4.2-.2.4-.4.7-.6.1-.1.3-.2.4-.3.2-.2.5-.4.7-.6.1-.1.3-.2.4-.3.3-.2.5-.4.8-.6.1,0,.2-.2.4-.3.3-.2.6-.4.8-.6.1,0,.2-.1.3-.2.3-.2.6-.4.9-.6,0,0,.2-.1.3-.2.3-.2.7-.4,1-.6,0,0,.1,0,.2,0,2.9-1.6,6.1-2.8,9.4-3.5,0,0,0,0,0,0l.4-.9,3.5-8C21.6,14.9,4.2,33.3,4.2,55.7s3.9,20.4,10.4,27.9l-6.4,14.7h16.7l2-4.9c5.9,3.1,12.7,4.9,19.8,4.9,23.5,0,42.6-19.1,42.6-42.6s-.2-4.8-.6-7.1l-7.2,13.5-1.9,3.6h0c-.2.7-.5,1.5-.7,2.2l-3.2-7.4,2.8-1.2,1.3-.6.5,2.8.5-.8,7.3-13.6-8.8-2.4M49.2,40l5.5,14.1-14,6.2,8.5-20.4ZM46.8,90c-6,0-11.7-1.6-16.6-4.3l2.5-6.1,27.2-12.1,6.4,16.4c-5.5,3.8-12.3,6.1-19.5,6.1Z"/>
  </g>
  <g>
    <path class="st0" d="M139.8,71.7c-2.4,1.1-5.4,1.7-8.8,1.7s-5.6-.5-8-1.5c-2.4-1-4.4-2.4-6-4.2-1.7-1.8-3-4-3.9-6.6-.9-2.6-1.3-5.4-1.3-8.4s.5-5.6,1.5-8c1-2.5,2.3-4.6,4-6.5,1.7-1.9,3.7-3.3,5.9-4.3,2.2-1,4.6-1.5,7-1.5s5.9.6,8.3,1.8c2.4,1.2,4.3,2.3,5.8,3.4l5-11.9c-2.1-1.3-4.8-2.6-8.1-3.7-3.3-1.2-7.1-1.7-11.4-1.7s-8.9.8-12.7,2.4c-3.8,1.6-7.1,3.9-9.9,6.9-2.8,3-4.9,6.5-6.4,10.5-1.5,4.1-2.2,8.5-2.2,13.4s.7,8.4,2.2,12.3c1.4,3.8,3.6,7.2,6.3,10.2,2.8,3,6.1,5.3,10.1,7,4,1.7,8.5,2.6,13.5,2.7,3.3,0,6.3-.3,9.1-1,2.7-.8,5-1.6,6.9-2.6,1.9-1,3.2-1.8,3.9-2.3l-5.2-11.3c-1.3,1.2-3.1,2.4-5.6,3.5Z"/>
    <path class="st0" d="M202.7,57.4c1.8-2.1,3-4.5,3.8-7.1.8-2.6,1.2-5.2,1.2-7.8s-.6-6.3-1.7-8.9c-1.1-2.6-2.7-4.9-4.8-6.8-2.1-1.9-4.7-3.3-7.9-4.4-3.1-1-6.7-1.5-10.7-1.5h-19.4v64.1h12.6v-20.4h8.4l13.5,20.4h14.7l-14.9-23.3c2-1.2,3.8-2.6,5.1-4.2ZM175.8,33h9.1c2.2,0,4,.4,5.3,1.1,1.3.8,2.3,1.7,2.9,2.8.6,1.1,1.1,2.2,1.3,3.3.2,1.1.3,2,.3,2.7s-.2,1.9-.5,3c-.3,1.1-.8,2.1-1.6,3.1-.7,1-1.7,1.8-3,2.4-1.3.6-2.9,1-4.8,1h-9v-19.3Z"/>
    <polygon class="st0" points="288.7 18.2 255.5 64.3 223 18.2 222.9 18.2 222.9 84.9 235.1 84.9 235.1 56.2 255.2 84 255.4 84 276.3 54.3 276.3 84.9 288.9 84.9 288.9 18.2 288.7 18.2"/>
  </g>
</svg>